<svg xmlns="http://www.w3.org/2000/svg" viewBox="0 0 512 512" role="img" aria-labelledby="title desc">
  <title id="title">Trip Expense Overview icon</title>
  <desc id="desc">A rounded travel expense icon with a receipt, route pin, and HK dollar mark.</desc>
  <defs>
    <linearGradient id="bg" x1="64" x2="448" y1="48" y2="464" gradientUnits="userSpaceOnUse">
      <stop offset="0" stop-color="#176b87" />
      <stop offset="1" stop-color="#0f3d4d" />
    </linearGradient>
    <linearGradient id="paper" x1="152" x2="372" y1="112" y2="408" gradientUnits="userSpaceOnUse">
      <stop offset="0" stop-color="#fffdfa" />
      <stop offset="1" stop-color="#f3efe7" />
    </linearGradient>
    <filter id="shadow" x="80" y="76" width="360" height="392" color-interpolation-filters="sRGB" filterUnits="userSpaceOnUse">
      <feDropShadow dx="0" dy="24" stdDeviation="24" flood-color="#0a2530" flood-opacity=".32" />
    </filter>
  </defs>
  <rect width="512" height="512" rx="112" fill="url(#bg)" />
  <circle cx="94" cy="102" r="96" fill="#f47b20" opacity=".28" />
  <circle cx="426" cy="424" r="132" fill="#2d8f77" opacity=".22" />
  <g filter="url(#shadow)">
    <path fill="url(#paper)" d="M160 104h192c22.1 0 40 17.9 40 40v264l-28-17.2-28 17.2-28-17.2-28 17.2-28-17.2-28 17.2-28-17.2-28 17.2-28-17.2V144c0-22.1 17.9-40 40-40Z" />
  </g>
  <path fill="#176b87" d="M200 177c0-39.8 32.2-72 72-72s72 32.2 72 72c0 51.8-72 124-72 124s-72-72.2-72-124Z" />
  <circle cx="272" cy="177" r="27" fill="#fffdfa" />
  <path fill="none" stroke="#d6d1c6" stroke-linecap="round" stroke-width="20" d="M202 326h140M202 370h96" />
  <path fill="#f47b20" d="M280.6 255.5v23.2c21.4 3.5 36.9 16.9 36.9 37.2 0 21-13.6 34.2-36.9 39.5v15.7h-19.2v-14.5c-19.2-1.4-36.1-8.4-48.8-18.9l14.6-24.2c10.2 8.2 22.8 13.7 34.2 15.4v-28.6c-22.3-5.2-42.3-13-42.3-38.1 0-20.1 15.7-34.7 42.3-37.5v-16.9h19.2v17c16 2.1 29 8 39.9 16.8l-14.7 23.2c-7.2-5.1-16.2-8.4-25.2-9.3Zm-19.2 18.7v-19.5c-8.8 1.7-12.7 5.7-12.7 10.6 0 5.1 4.4 7.4 12.7 8.9Zm19.2 30.1v24.5c7.1-2.3 10.8-6.2 10.8-12.4 0-5.7-3.3-8.9-10.8-12.1Z" />
</svg>
